<?xml version="1.0" encoding="UTF-8"?>
<svg xmlns="http://www.w3.org/2000/svg" width="465" height="81" viewBox="0 0 465 81" fill="none">
  <g clip-path="url(#clip0_1301_22)">
    <path fill-rule="evenodd" clip-rule="evenodd" d="M255.43 46.5C255.43 41.09 256.83 36.8 259.63 33.63C262.43 30.47 266.19 28.88 270.92 28.88C275.65 28.88 279.43 30.47 282.23 33.63C285.04 36.8 286.44 41.09 286.44 46.5C286.44 51.91 285.04 56.21 282.23 59.38C279.43 62.54 275.66 64.12 270.92 64.12C266.18 64.12 262.43 62.53 259.63 59.38C256.83 56.21 255.43 51.92 255.43 46.5ZM270.92 36.01C268.82 36.01 267.18 36.93 265.98 38.78C264.79 40.63 264.18 43.2 264.18 46.49C264.18 49.78 264.78 52.36 265.98 54.21C267.18 56.06 268.82 56.98 270.92 56.98C273.02 56.98 274.69 56.06 275.88 54.21C277.07 52.36 277.68 49.79 277.68 46.49C277.68 43.19 277.07 40.63 275.88 38.78C274.69 36.93 273.03 36.01 270.92 36.01ZM254.86 38.94C253.9 38.06 252.78 37.41 251.49 36.97C250.21 36.53 248.8 36.32 247.26 36.32C245.41 36.32 243.79 36.65 242.4 37.29C241.01 37.95 239.94 38.89 239.18 40.12C238.7 40.88 238.36 41.8 238.18 42.87C237.99 43.95 237.89 45.59 237.89 47.78V63.24H229.13V29.69H237.89V34.91C238.74 33 240.06 31.5 241.84 30.46C243.62 29.41 245.69 28.88 248.07 28.88C249.26 28.88 250.44 29.02 251.58 29.31C252.72 29.61 253.81 30.03 254.86 30.59V38.95V38.94ZM215.12 20.16V29.69H226.57V36.43H215.12V52.32C215.12 53.81 215.49 54.89 216.21 55.54C216.93 56.18 218.15 56.51 219.84 56.51H226.57V63.25H219.21C214.19 63.25 210.79 62.44 209.02 60.84C207.24 59.23 206.36 56.26 206.36 51.9V36.43H197.81V29.69H206.36V20.16H215.12ZM195.73 30.74V38.41C194.12 37.37 192.43 36.59 190.7 36.06C188.96 35.53 187.21 35.26 185.45 35.26C183.49 35.26 182.02 35.54 181.02 36.12C180.03 36.68 179.53 37.53 179.53 38.65C179.53 40.25 181.66 41.54 185.92 42.55L186.26 42.64L188.76 43.23C191.95 44 194.29 45.21 195.78 46.9C197.26 48.59 198.01 50.87 198.01 53.75C198.01 57.2 196.87 59.8 194.62 61.53C192.35 63.26 188.94 64.12 184.4 64.12C182.39 64.12 180.33 63.95 178.21 63.6C176.1 63.25 173.96 62.72 171.78 62.02V54.35C173.71 55.44 175.68 56.28 177.68 56.86C179.69 57.44 181.62 57.73 183.5 57.73C185.55 57.73 187.1 57.43 188.16 56.83C189.21 56.24 189.74 55.37 189.74 54.22C189.74 53.07 189.36 52.25 188.62 51.64C187.88 51.05 186.1 50.4 183.29 49.73L180.87 49.19C177.51 48.43 175.08 47.24 173.54 45.63C172 44 171.23 41.84 171.23 39.13C171.23 35.9 172.39 33.37 174.73 31.58C177.06 29.78 180.34 28.88 184.56 28.88C186.46 28.88 188.35 29.04 190.23 29.34C192.12 29.66 193.94 30.12 195.72 30.74H195.73ZM170.23 44.1V63.25H161.52V59.51C160.46 60.98 159.11 62.13 157.46 62.93C155.81 63.73 153.98 64.13 151.99 64.13C148.17 64.13 145.21 63.12 143.09 61.1C140.97 59.09 139.91 56.26 139.91 52.65C139.91 48.73 141.17 45.85 143.7 43.97C146.23 42.1 150.15 41.17 155.45 41.17H161.52V39.71C161.52 38.29 161.01 37.21 159.98 36.49C158.96 35.76 157.45 35.4 155.45 35.4C153.45 35.4 151.33 35.66 149.37 36.2C147.41 36.72 145.36 37.57 143.23 38.73V31.24C145.16 30.44 147.13 29.85 149.12 29.47C151.12 29.09 153.23 28.9 155.46 28.9C160.91 28.9 164.73 30 166.93 32.22C169.14 34.44 170.24 38.41 170.24 44.12L170.23 44.1ZM158.02 47.49C154.75 47.49 152.47 47.91 151.17 48.75C149.87 49.59 149.23 51.03 149.23 53.06C149.23 54.57 149.68 55.78 150.57 56.68C151.47 57.58 152.68 58.03 154.22 58.03C156.53 58.03 158.33 57.16 159.61 55.41C160.89 53.66 161.52 51.22 161.52 48.09V47.48H158.02V47.49ZM130.49 55.16V46.63H124.45V39.19H138.21V59.69C136.52 61.14 134.65 62.25 132.6 62.99C130.55 63.74 128.37 64.11 126.04 64.11C120.25 64.11 115.79 62.09 112.64 58.07C109.49 54.04 107.91 48.32 107.91 40.91C107.91 33.5 109.5 27.63 112.68 23.65C115.87 19.67 120.46 17.69 126.46 17.69C128.26 17.69 130.01 17.95 131.75 18.46C133.48 18.96 135.12 19.7 136.63 20.66V30.46C135.4 28.86 133.98 27.66 132.37 26.85C130.77 26.04 129.01 25.63 127.09 25.63C123.74 25.63 121.23 26.9 119.58 29.42C117.93 31.95 117.1 35.77 117.1 40.91C117.1 46.05 117.9 49.67 119.49 52.27C121.09 54.87 123.41 56.17 126.46 56.17C127.38 56.17 128.17 56.09 128.86 55.91C129.53 55.75 130.08 55.49 130.5 55.14L130.49 55.16Z" fill="#D74B4B"></path>
    <path fill-rule="evenodd" clip-rule="evenodd" d="M433.73 46.49C433.73 41.08 435.13 36.79 437.93 33.62C440.73 30.46 444.49 28.87 449.22 28.87C453.95 28.87 457.73 30.46 460.53 33.62C463.33 36.79 464.73 41.08 464.73 46.49C464.73 51.9 463.33 56.2 460.53 59.37C457.73 62.53 453.96 64.12 449.22 64.12C444.48 64.12 440.73 62.54 437.93 59.37C435.13 56.2 433.73 51.91 433.73 46.49ZM449.22 36.01C447.12 36.01 445.47 36.93 444.28 38.78C443.09 40.63 442.48 43.2 442.48 46.49C442.48 49.78 443.08 52.36 444.28 54.21C445.47 56.06 447.12 56.98 449.22 56.98C451.32 56.98 452.99 56.06 454.18 54.21C455.37 52.36 455.98 49.79 455.98 46.49C455.98 43.19 455.38 40.63 454.18 38.78C452.99 36.93 451.33 36.01 449.22 36.01ZM433.16 38.95C432.2 38.07 431.08 37.41 429.79 36.97C428.51 36.53 427.1 36.32 425.56 36.32C423.71 36.32 422.09 36.65 420.7 37.29C419.31 37.94 418.24 38.89 417.49 40.12C417.01 40.88 416.67 41.8 416.49 42.87C416.3 43.95 416.21 45.59 416.21 47.78V63.24H407.45V29.69H416.21V34.91C417.06 33 418.38 31.5 420.16 30.46C421.93 29.41 424.01 28.88 426.38 28.88C427.58 28.88 428.75 29.02 429.89 29.31C431.03 29.6 432.13 30.03 433.17 30.59V38.95H433.16ZM394.04 20.16V29.69H405.49V36.43H394.04V52.32C394.04 53.81 394.41 54.89 395.13 55.54C395.85 56.19 397.07 56.51 398.76 56.51H405.49V63.25H398.13C393.11 63.25 389.71 62.44 387.94 60.84C386.16 59.23 385.28 56.25 385.28 51.9V36.43H376.72V29.69H385.28V20.16H394.04ZM375.21 41.46V63.25H366.5V42.81C366.5 40.37 366.15 38.62 365.47 37.58C364.78 36.52 363.66 36 362.11 36C360.56 36 359.29 36.7 358.39 38.13C357.48 39.55 357.03 41.52 357.03 44.03V63.24H348.32V29.69H357.03V34.73C357.65 32.87 358.71 31.44 360.21 30.41C361.7 29.4 363.51 28.89 365.62 28.89C368.78 28.89 371.18 29.94 372.8 32.05C374.41 34.16 375.22 37.3 375.22 41.47L375.21 41.46ZM337.89 42.72C337.85 40.41 337.26 38.65 336.11 37.46C334.96 36.27 333.27 35.68 331.04 35.68C329.03 35.68 327.42 36.29 326.22 37.52C325.03 38.75 324.31 40.49 324.09 42.75L337.88 42.72H337.89ZM345.29 61.6C343.26 62.44 341.19 63.06 339.08 63.48C336.97 63.9 334.73 64.11 332.38 64.11C326.79 64.11 322.5 62.61 319.54 59.6C316.58 56.59 315.1 52.26 315.1 46.61C315.1 40.96 316.53 36.81 319.37 33.64C322.22 30.46 326.11 28.87 331.04 28.87C335.97 28.87 339.86 30.34 342.59 33.29C345.34 36.24 346.7 40.39 346.7 45.74V49.31H324C324.02 51.95 324.8 53.91 326.34 55.21C327.87 56.51 330.17 57.15 333.21 57.15C335.23 57.15 337.21 56.86 339.16 56.28C341.12 55.7 343.16 54.78 345.29 53.53V61.59V61.6ZM314.44 61.54C312.96 62.4 311.38 63.04 309.68 63.47C307.98 63.9 306.17 64.11 304.21 64.11C299.04 64.11 295.02 62.56 292.1 59.44C289.19 56.32 287.73 52 287.73 46.49C287.73 40.98 289.2 36.63 292.12 33.5C295.05 30.38 299.09 28.82 304.26 28.82C306.06 28.82 307.78 29.03 309.45 29.45C311.11 29.87 312.78 30.51 314.43 31.39V39.42C313.16 38.33 311.76 37.47 310.23 36.88C308.71 36.3 307.13 36 305.49 36C302.65 36 300.45 36.91 298.92 38.73C297.38 40.54 296.61 43.13 296.61 46.48C296.61 49.83 297.38 52.42 298.92 54.21C300.45 56.01 302.65 56.91 305.49 56.91C307.19 56.91 308.77 56.62 310.25 56.05C311.72 55.49 313.12 54.62 314.43 53.46V61.52L314.44 61.54Z" fill="#D74B4B"></path>
    <path fill-rule="evenodd" clip-rule="evenodd" d="M459.77 71.63H461.09L463.56 79.72H462.43L461.83 77.61H459L458.41 79.72H457.28L459.75 71.63H459.77ZM460.43 72.59L459.28 76.73H461.58L460.43 72.59ZM451.91 71.63H456.39V72.55H454.7V78.8H456.39V79.72H451.91V78.8H453.6V72.55H451.91V71.63ZM450.52 79.05C450.23 79.32 449.9 79.53 449.53 79.66C449.17 79.8 448.77 79.87 448.35 79.87C447.32 79.87 446.53 79.5 445.96 78.77C445.39 78.03 445.1 77 445.1 75.68C445.1 74.36 445.39 73.33 445.97 72.59C446.55 71.85 447.35 71.48 448.38 71.48C448.72 71.48 449.04 71.53 449.35 71.62C449.66 71.72 449.96 71.86 450.25 72.05V73.17C449.96 72.89 449.66 72.69 449.35 72.56C449.04 72.43 448.72 72.36 448.38 72.36C447.67 72.36 447.14 72.64 446.78 73.19C446.43 73.74 446.25 74.57 446.25 75.67C446.25 76.77 446.42 77.62 446.77 78.17C447.12 78.71 447.64 78.98 448.36 78.98C448.6 78.98 448.81 78.95 449 78.9L449.49 78.64V76.47H448.32V75.57H450.54V79.05H450.52ZM444.32 75.68C444.32 77.09 444.1 78.14 443.65 78.83C443.2 79.52 442.53 79.87 441.61 79.87C440.69 79.87 440.02 79.52 439.58 78.84C439.14 78.15 438.92 77.1 438.92 75.68C438.92 74.26 439.14 73.22 439.59 72.52C440.04 71.83 440.71 71.48 441.62 71.48C442.53 71.48 443.21 71.83 443.66 72.52C444.11 73.21 444.33 74.27 444.33 75.68H444.32ZM443.18 75.68C443.18 74.49 443.06 73.64 442.81 73.13C442.57 72.62 442.17 72.37 441.61 72.37C441.05 72.37 440.66 72.63 440.42 73.13C440.18 73.64 440.05 74.49 440.05 75.68C440.05 76.87 440.17 77.71 440.42 78.22C440.66 78.73 441.06 78.98 441.61 78.98C442.16 78.98 442.57 78.73 442.81 78.22C443.05 77.71 443.18 76.86 443.18 75.67V75.68ZM433.17 71.63H434.27V78.8H438.17V79.72H433.18V71.63H433.17ZM431.77 75.68C431.77 77.09 431.55 78.14 431.1 78.83C430.65 79.52 429.97 79.87 429.06 79.87C428.15 79.87 427.47 79.52 427.03 78.84C426.59 78.15 426.37 77.1 426.37 75.68C426.37 74.26 426.59 73.22 427.04 72.52C427.49 71.83 428.16 71.48 429.07 71.48C429.98 71.48 430.66 71.83 431.11 72.52C431.56 73.21 431.78 74.27 431.78 75.68H431.77ZM430.63 75.68C430.63 74.49 430.51 73.64 430.27 73.13C430.03 72.62 429.63 72.37 429.07 72.37C428.51 72.37 428.12 72.63 427.88 73.13C427.64 73.64 427.51 74.49 427.51 75.68C427.51 76.87 427.63 77.71 427.88 78.22C428.12 78.73 428.52 78.98 429.07 78.98C429.62 78.98 430.03 78.73 430.27 78.22C430.51 77.71 430.63 76.86 430.63 75.67V75.68ZM421.34 72.53V75.4H422.54C423.06 75.4 423.45 75.28 423.71 75.05C423.97 74.82 424.09 74.46 424.09 73.97C424.09 73.48 423.95 73.15 423.68 72.9C423.41 72.65 423.01 72.53 422.49 72.53H421.34ZM423.58 75.9C423.86 75.97 424.1 76.11 424.3 76.31C424.5 76.51 424.74 76.91 425.04 77.51L426.14 79.72H424.97L424.01 77.68C423.73 77.1 423.48 76.72 423.26 76.56C423.04 76.39 422.75 76.31 422.39 76.31H421.35V79.73H420.25V71.64H422.5C423.39 71.64 424.07 71.84 424.54 72.24C425.01 72.64 425.25 73.22 425.25 73.98C425.25 74.52 425.1 74.95 424.81 75.29C424.52 75.63 424.11 75.83 423.59 75.91L423.58 75.9ZM414.27 71.63H419.06V72.55H415.36V74.94H418.89V75.86H415.36V78.79H419.16V79.71H414.27V71.62V71.63ZM407.18 71.63H413.34V72.55H410.82V79.72H409.72V72.55H407.18V71.63ZM401.41 71.63H402.79L405.51 78.29V71.63H406.56V79.72H405.18L402.45 73.06V79.72H401.4V71.63H401.41ZM395.45 71.63H400.24V72.55H396.54V74.94H400.07V75.86H396.54V78.79H400.34V79.71H395.45V71.62V71.63ZM394.15 75.68C394.15 77.09 393.93 78.14 393.48 78.83C393.03 79.52 392.36 79.87 391.45 79.87C390.54 79.87 389.86 79.52 389.42 78.84C388.98 78.15 388.76 77.1 388.76 75.68C388.76 74.26 388.98 73.22 389.43 72.52C389.88 71.83 390.55 71.48 391.46 71.48C392.37 71.48 393.05 71.83 393.49 72.52C393.94 73.21 394.16 74.27 394.16 75.68H394.15ZM393.01 75.68C393.01 74.49 392.89 73.64 392.65 73.13C392.41 72.62 392.01 72.37 391.45 72.37C390.89 72.37 390.5 72.63 390.26 73.13C390.02 73.64 389.9 74.49 389.9 75.68C389.9 76.87 390.02 77.71 390.26 78.22C390.5 78.73 390.9 78.98 391.45 78.98C392 78.98 392.4 78.73 392.65 78.22C392.89 77.71 393.01 76.86 393.01 75.67V75.68ZM383.72 72.53V75.4H384.92C385.44 75.4 385.83 75.28 386.09 75.05C386.35 74.82 386.47 74.46 386.47 73.97C386.47 73.48 386.33 73.15 386.06 72.9C385.79 72.65 385.39 72.53 384.87 72.53H383.72ZM385.96 75.9C386.24 75.97 386.48 76.11 386.68 76.31C386.88 76.51 387.13 76.91 387.42 77.51L388.52 79.72H387.35L386.39 77.68C386.11 77.1 385.86 76.72 385.64 76.56C385.42 76.39 385.13 76.31 384.77 76.31H383.72V79.73H382.62V71.64H384.87C385.76 71.64 386.43 71.84 386.91 72.24C387.38 72.64 387.62 73.22 387.62 73.98C387.62 74.52 387.48 74.95 387.18 75.29C386.89 75.63 386.48 75.83 385.96 75.91V75.9ZM375.83 71.63H381.99V72.55H379.47V79.72H378.37V72.55H375.84V71.63H375.83ZM374.78 71.91V73.02C374.45 72.81 374.12 72.65 373.78 72.54C373.45 72.43 373.11 72.38 372.77 72.38C372.25 72.38 371.85 72.5 371.55 72.74C371.25 72.98 371.1 73.3 371.1 73.71C371.1 74.07 371.2 74.34 371.39 74.53C371.59 74.72 371.95 74.87 372.49 75L373.06 75.13C373.82 75.31 374.37 75.59 374.72 75.96C375.06 76.34 375.24 76.86 375.24 77.51C375.24 78.28 375 78.86 374.52 79.27C374.04 79.67 373.35 79.88 372.44 79.88C372.06 79.88 371.68 79.84 371.3 79.76C370.92 79.68 370.53 79.56 370.15 79.39V78.23C370.56 78.49 370.95 78.69 371.32 78.81C371.69 78.93 372.06 78.99 372.44 78.99C372.99 78.99 373.42 78.87 373.73 78.62C374.04 78.37 374.19 78.03 374.19 77.58C374.19 77.18 374.09 76.87 373.87 76.65C373.66 76.44 373.29 76.27 372.77 76.15L372.19 76.02C371.44 75.85 370.9 75.59 370.56 75.25C370.22 74.91 370.05 74.45 370.05 73.87C370.05 73.15 370.29 72.57 370.78 72.13C371.26 71.7 371.91 71.48 372.71 71.48C373.02 71.48 373.34 71.51 373.69 71.59C374.03 71.66 374.39 71.77 374.77 71.91H374.78ZM365.7 71.63H367.02L369.49 79.72H368.36L367.76 77.61H364.93L364.34 79.72H363.21L365.68 71.63H365.7ZM366.36 72.59L365.21 76.73H367.51L366.36 72.59ZM362.73 79.05C362.44 79.32 362.11 79.53 361.74 79.66C361.37 79.8 360.98 79.87 360.55 79.87C359.53 79.87 358.73 79.5 358.16 78.77C357.59 78.03 357.31 77 357.31 75.68C357.31 74.36 357.6 73.33 358.18 72.59C358.76 71.85 359.56 71.48 360.59 71.48C360.93 71.48 361.25 71.53 361.56 71.62C361.87 71.72 362.17 71.86 362.46 72.05V73.17C362.17 72.89 361.87 72.69 361.56 72.56C361.25 72.43 360.93 72.36 360.59 72.36C359.88 72.36 359.34 72.64 358.99 73.19C358.63 73.74 358.46 74.57 358.46 75.67C358.46 76.77 358.63 77.62 358.98 78.17C359.33 78.71 359.85 78.98 360.57 78.98C360.81 78.98 361.02 78.95 361.21 78.9L361.7 78.64V76.47H360.53V75.57H362.75V79.05H362.73ZM344.89 71.63H349.68V72.55H345.98V74.94H349.51V75.86H345.98V78.79H349.78V79.71H344.89V71.62V71.63ZM339.93 71.63C341.16 71.63 342.07 71.96 342.65 72.62C343.24 73.28 343.53 74.3 343.53 75.69C343.53 77.08 343.24 78.09 342.65 78.74C342.07 79.4 341.16 79.72 339.93 79.72H338.29V71.63H339.93ZM339.91 78.82C340.83 78.82 341.47 78.59 341.83 78.14C342.19 77.69 342.38 76.87 342.38 75.68C342.38 74.49 342.2 73.66 341.84 73.21C341.48 72.76 340.83 72.53 339.91 72.53H339.39V78.82H339.91ZM327.29 71.63H328.61L331.08 79.72H329.95L329.35 77.61H326.52L325.93 79.72H324.8L327.27 71.63H327.29ZM327.95 72.59L326.8 76.73H329.1L327.95 72.59ZM324.15 79.43C323.87 79.58 323.59 79.69 323.3 79.76C323.01 79.83 322.7 79.87 322.37 79.87C321.34 79.87 320.53 79.5 319.96 78.77C319.39 78.04 319.1 77.01 319.1 75.68C319.1 74.35 319.39 73.33 319.96 72.59C320.54 71.85 321.34 71.48 322.36 71.48C322.69 71.48 323 71.52 323.29 71.59C323.58 71.66 323.87 71.78 324.14 71.92V73.04C323.87 72.82 323.59 72.65 323.28 72.54C322.98 72.42 322.67 72.37 322.36 72.37C321.65 72.37 321.12 72.64 320.76 73.19C320.41 73.74 320.23 74.57 320.23 75.68C320.23 76.79 320.41 77.61 320.76 78.16C321.11 78.71 321.65 78.98 322.36 78.98C322.68 78.98 322.99 78.92 323.29 78.81C323.59 78.7 323.88 78.53 324.14 78.31V79.43H324.15ZM313.17 71.63H317.65V72.55H315.96V78.8H317.65V79.72H313.17V78.8H314.86V72.55H313.17V71.63ZM306.56 71.63H307.94L310.67 78.29V71.63H311.72V79.72H310.34L307.61 73.06V79.72H306.56V71.63ZM303.17 69.43H304.18L302.94 70.86H302.11L303.17 69.43ZM300.63 71.63H305.11V72.55H303.42V78.8H305.11V79.72H300.63V78.8H302.32V72.55H300.63V71.63ZM294.43 71.63H295.53V78.8H299.43V79.72H294.43V71.63ZM292.8 79.43C292.52 79.58 292.24 79.69 291.95 79.76C291.66 79.83 291.35 79.87 291.02 79.87C289.99 79.87 289.18 79.5 288.61 78.77C288.04 78.04 287.75 77.01 287.75 75.68C287.75 74.35 288.04 73.33 288.61 72.59C289.19 71.85 289.99 71.48 291.01 71.48C291.34 71.48 291.65 71.52 291.94 71.59C292.23 71.66 292.52 71.78 292.79 71.92V73.04C292.52 72.82 292.24 72.65 291.93 72.54C291.63 72.42 291.32 72.37 291.01 72.37C290.3 72.37 289.77 72.64 289.41 73.19C289.06 73.74 288.88 74.57 288.88 75.68C288.88 76.79 289.06 77.61 289.41 78.16C289.76 78.71 290.3 78.98 291.01 78.98C291.33 78.98 291.64 78.92 291.94 78.81C292.24 78.7 292.53 78.53 292.79 78.31V79.43H292.8Z" fill="#D74B4B"></path>
    <path fill-rule="evenodd" clip-rule="evenodd" d="M14.53 80.91H8.68C3.9 80.91 -0.01 76.99 -0.01 72.2V9.62001C0 5.64001 2.69 2.27001 6.34 1.23001C4.91 8.05001 7.5 17.46 13.08 19.92C6.63 35.79 13.5 50.71 35.67 53.8C39.62 54.35 43.71 53.97 47.54 55.13C54.94 57.36 52.13 62.62 43.31 64.53C28.87 68.04 20.74 63.54 16.12 70.34C13.77 73.8 14.13 77.15 14.52 80.91" fill="#D74B4B"></path>
    <path fill-rule="evenodd" clip-rule="evenodd" d="M13.47 0.910004H76.57C81.35 0.910004 85.26 4.83 85.26 9.62V72.21C85.26 77 81.35 80.92 76.57 80.92H23.45C22.26 75.74 25.72 74.44 32.73 73.83C39.39 73.25 45.43 73.19 51.89 71.1C63.93 67.2 71.05 59.61 71.78 47.24C72.19 40.28 70.91 33.69 66.65 28.02C58.97 17.81 43.43 13.31 20.03 16.34C15.08 13.93 12.38 8 13.49 0.920004" fill="#D74B4B"></path>
  </g>
  <defs>
    <clipPath id="clip0_1301_22">
      <rect width="464.74" height="80" fill="white" transform="translate(0 0.910004)"></rect>
    </clipPath>
  </defs>
</svg>
